<?xml version="1.0" encoding="UTF-8"?>
<svg id="Layer_1" data-name="Layer 1" xmlns="http://www.w3.org/2000/svg" xmlns:xlink="http://www.w3.org/1999/xlink" viewBox="0 0 36.6 54.7">
  <defs>
    <style>
      .cls-1 {
        fill: #fff;
      }

      .cls-2 {
        fill: #1b3459;
      }

      .cls-3 {
        clip-path: url(#clippath-1);
      }

      .cls-4 {
        clip-path: url(#clippath);
      }

      .cls-5 {
        fill: none;
      }

      .cls-6 {
        fill: url(#linear-gradient);
      }
    </style>
    <clipPath id="clippath">
      <polygon class="cls-5" points="36.6 10.5 18.3 0 0 10.5 0 31.7 18.3 42.2 36.6 31.7 36.6 10.5"/>
    </clipPath>
    <linearGradient id="linear-gradient" x1="18.3" y1="55.4" x2="18.3" y2="13.2" gradientTransform="translate(0 55.4) scale(1 -1)" gradientUnits="userSpaceOnUse">
      <stop offset="0" stop-color="#0f33a7"/>
      <stop offset="1" stop-color="#3b79fe"/>
    </linearGradient>
    <clipPath id="clippath-1">
      <polygon class="cls-5" points="36.6 10.5 18.3 0 0 10.5 0 31.7 18.3 42.2 36.6 31.7 36.6 10.5"/>
    </clipPath>
  </defs>
  <polygon class="cls-2" points="18.3 44.6 7.7 38.4 7.7 48.6 18.3 54.7 29 48.6 29 38.4 18.3 44.6"/>
  <g>
    <g class="cls-4">
      <polygon class="cls-6" points="36.6 10.5 18.3 0 0 10.5 0 31.7 18.3 42.2 36.6 31.7 36.6 10.5"/>
    </g>
    <g class="cls-3">
      <g>
        <g>
          <rect class="cls-1" x="18.1" y="20.1" width=".5" height="22.7"/>
          <circle class="cls-1" cx="18.3" cy="18.6" r="2"/>
        </g>
        <g>
          <rect class="cls-1" x="8.8" y="26.9" width=".5" height="11.9"/>
          <circle class="cls-1" cx="9.1" cy="25.3" r="2"/>
        </g>
        <g>
          <rect class="cls-1" x="27.3" y="26.9" width=".5" height="11.9"/>
          <circle class="cls-1" cx="27.6" cy="25.3" r="2"/>
        </g>
      </g>
    </g>
  </g>
</svg>